<svg xmlns="http://www.w3.org/2000/svg" viewBox="0 0 800 400" width="800" height="400">
  <defs>
    <style>
      @import url('https://fonts.googleapis.com/css2?family=Inter:wght@400;600;700');
      text { font-family: 'Inter', sans-serif; }
    </style>
    <linearGradient id="bgGrad" x1="0%" y1="0%" x2="0%" y2="100%">
      <stop offset="0%" style="stop-color:#111827"/>
      <stop offset="100%" style="stop-color:#0F172A"/>
    </linearGradient>
  </defs>
  
  <!-- Background -->
  <rect width="800" height="400" fill="url(#bgGrad)"/>
  
  <!-- Title -->
  <text x="400" y="35" text-anchor="middle" font-weight="700" font-size="22" fill="#D1D5DB">Product Ecosystem Flow</text>
  <text x="400" y="55" text-anchor="middle" font-weight="400" font-size="12" fill="#9CA3AF">InfraMind AI — Four Interconnected Products</text>
  
  <!-- Blue IM Monogram -->
  <g transform="translate(720, 10) scale(0.4)">
    <rect x="6" y="6" width="4" height="28" rx="1" fill="#2A6094"/>
    <rect x="14" y="6" width="4" height="28" rx="1" fill="#2A6094"/>
    <path d="M14 6 L20 16 L18 16 L14 8" fill="#2A6094"/>
    <path d="M26 6 L20 16 L22 16 L26 8" fill="#2A6094"/>
    <rect x="26" y="6" width="4" height="28" rx="1" fill="#2A6094"/>
    <rect x="6" y="32" width="24" height="3" rx="1" fill="#2A6094"/>
  </g>
  
  <!-- Central Hub -->
  <circle cx="400" cy="200" r="65" fill="#2A6094" fill-opacity="0.15" stroke="#2A6094" stroke-width="2"/>
  <text x="400" y="190" text-anchor="middle" font-weight="700" font-size="14" fill="#2A6094">InfraMind</text>
  <text x="400" y="210" text-anchor="middle" font-weight="700" font-size="14" fill="#2A6094">AI Hub</text>
  <text x="400" y="230" text-anchor="middle" font-weight="400" font-size="9" fill="#D1D5DB">Compound Intelligence</text>
  
  <!-- Product 1: OCR Intelligence (Top-Left) -->
  <rect x="60" y="60" width="180" height="90" rx="8" fill="#2A6094" fill-opacity="0.12" stroke="#2A6094" stroke-width="1.5"/>
  <text x="150" y="85" text-anchor="middle" font-weight="600" font-size="12" fill="#2A6094">OCR Intelligence</text>
  <text x="150" y="105" text-anchor="middle" font-weight="400" font-size="10" fill="#D1D5DB">Document Digitization</text>
  <text x="150" y="125" text-anchor="middle" font-weight="400" font-size="9" fill="#9CA3AF">98%+ Accuracy</text>
  <text x="150" y="140" text-anchor="middle" font-weight="400" font-size="8" fill="#2A6094">Layer 1: Data Capture</text>
  
  <!-- Arrow from OCR to Hub -->
  <line x1="240" y1="105" x2="340" y2="170" stroke="#2A6094" stroke-width="1.5"/>
  <polygon points="335,165 345,175 335,180" fill="#2A6094"/>
  
  <!-- Product 2: Digital Twin (Top-Right) -->
  <rect x="560" y="60" width="180" height="90" rx="8" fill="#06B6D4" fill-opacity="0.12" stroke="#06B6D4" stroke-width="1.5"/>
  <text x="650" y="85" text-anchor="middle" font-weight="600" font-size="12" fill="#06B6D4">Digital Twin</text>
  <text x="650" y="105" text-anchor="middle" font-weight="400" font-size="10" fill="#D1D5DB">13-Module Dashboard</text>
  <text x="650" y="125" text-anchor="middle" font-weight="400" font-size="9" fill="#9CA3AF">75% MIS Reduction</text>
  <text x="650" y="140" text-anchor="middle" font-weight="400" font-size="8" fill="#06B6D4">Layer 2: Intelligence</text>
  
  <!-- Arrow from Hub to Digital Twin -->
  <line x1="460" y1="170" x2="560" y2="105" stroke="#06B6D4" stroke-width="1.5"/>
  <polygon points="555,110 565,100 555,95" fill="#06B6D4"/>
  
  <!-- Product 3: NCR Tracker (Bottom-Left) -->
  <rect x="60" y="260" width="180" height="90" rx="8" fill="#10B981" fill-opacity="0.12" stroke="#10B981" stroke-width="1.5"/>
  <text x="150" y="285" text-anchor="middle" font-weight="600" font-size="12" fill="#10B981">NCR Tracker</text>
  <text x="150" y="305" text-anchor="middle" font-weight="400" font-size="10" fill="#D1D5DB">6-Module Quality</text>
  <text x="150" y="325" text-anchor="middle" font-weight="400" font-size="9" fill="#9CA3AF">40%+ Faster Closure</text>
  <text x="150" y="340" text-anchor="middle" font-weight="400" font-size="8" fill="#10B981">Layer 2: Intelligence</text>
  
  <!-- Arrow from Hub to NCR Tracker -->
  <line x1="340" y1="230" x2="240" y2="305" stroke="#10B981" stroke-width="1.5"/>
  <polygon points="245,300 235,310 245,315" fill="#10B981"/>
  
  <!-- Product 4: Contract Forensics (Bottom-Right) -->
  <rect x="560" y="260" width="180" height="90" rx="8" fill="#8B5CF6" fill-opacity="0.12" stroke="#8B5CF6" stroke-width="1.5"/>
  <text x="650" y="285" text-anchor="middle" font-weight="600" font-size="12" fill="#8B5CF6">Contract Forensics</text>
  <text x="650" y="305" text-anchor="middle" font-weight="400" font-size="10" fill="#D1D5DB">AI Contract Analysis</text>
  <text x="650" y="325" text-anchor="middle" font-weight="400" font-size="9" fill="#9CA3AF">Weeks → Hours</text>
  <text x="650" y="340" text-anchor="middle" font-weight="400" font-size="8" fill="#8B5CF6">Layer 3: Decision</text>
  
  <!-- Arrow from Contract Forensics to Hub -->
  <line x1="560" y1="305" x2="460" y2="230" stroke="#8B5CF6" stroke-width="1.5"/>
  <polygon points="465,235 455,225 455,235" fill="#8B5CF6"/>
  
  <!-- Cross-product connections (dashed) -->
  <line x1="240" y1="140" x2="560" y2="140" stroke="#9CA3AF" stroke-width="1" stroke-dasharray="4,4"/>
  <line x1="240" y1="300" x2="560" y2="300" stroke="#9CA3AF" stroke-width="1" stroke-dasharray="4,4"/>
  <line x1="150" y1="150" x2="150" y2="260" stroke="#9CA3AF" stroke-width="1" stroke-dasharray="4,4"/>
  <line x1="650" y1="150" x2="650" y2="260" stroke="#9CA3AF" stroke-width="1" stroke-dasharray="4,4"/>
  
  <!-- Bottom Brand -->
  <text x="400" y="395" text-anchor="middle" font-weight="400" font-size="9" fill="#2A6094">InfraMind AI — AI-Enabled EPC Operational Intelligence</text>
</svg>