<svg xmlns="http://www.w3.org/2000/svg" viewBox="0 0 800 450" width="800" height="450">
  <defs>
    <style>
      @import url('https://fonts.googleapis.com/css2?family=Inter:wght@400;600;700');
      text { font-family: 'Inter', sans-serif; }
    </style>
    <linearGradient id="bgGrad" x1="0%" y1="0%" x2="0%" y2="100%">
      <stop offset="0%" style="stop-color:#1E2128"/>
      <stop offset="100%" style="stop-color:#14171C"/>
    </linearGradient>
  </defs>
  
  <!-- Background -->
  <rect width="800" height="450" fill="url(#bgGrad)"/>
  
  <!-- Title -->
  <text x="400" y="35" text-anchor="middle" font-weight="700" font-size="22" fill="#D0D3D8">Product Ecosystem Flow</text>
  <text x="400" y="55" text-anchor="middle" font-weight="400" font-size="12" fill="#8A8D95">InfraMind AI — Five Interconnected Products</text>
  
  <!-- Infrastructure Nexus Mark -->
  <g transform="translate(720, 10) scale(0.4)">
    <line x1="8" y1="8" x2="8" y2="48" stroke="#C45A27" stroke-width="3" stroke-linecap="round"/>
    <line x1="40" y1="8" x2="24" y2="48" stroke="#C45A27" stroke-width="3" stroke-linecap="round"/>
    <line x1="24" y1="48" x2="40" y2="48" stroke="#C45A27" stroke-width="3" stroke-linecap="round"/>
    <line x1="8" y1="28" x2="40" y2="28" stroke="#C45A27" stroke-width="2" stroke-linecap="round"/>
    <circle cx="8" cy="8" r="4" fill="#C45A27"/>
    <circle cx="8" cy="48" r="4" fill="#C45A27"/>
    <circle cx="40" cy="8" r="4" fill="#C45A27"/>
    <circle cx="24" cy="48" r="4" fill="#C45A27"/>
    <circle cx="8" cy="28" r="3" fill="#C45A27"/>
    <circle cx="40" cy="28" r="3" fill="#C45A27"/>
  </g>
  
  <!-- Central Hub -->
  <circle cx="400" cy="225" r="65" fill="#C45A27" fill-opacity="0.15" stroke="#C45A27" stroke-width="2"/>
  <text x="400" y="215" text-anchor="middle" font-weight="700" font-size="14" fill="#C45A27">InfraMind</text>
  <text x="400" y="235" text-anchor="middle" font-weight="700" font-size="14" fill="#C45A27">AI Hub</text>
  <text x="400" y="255" text-anchor="middle" font-weight="400" font-size="9" fill="#D0D3D8">Compound Intelligence</text>
  
  <!-- Product 1: OCR Intelligence (Top-Left) -->
  <rect x="60" y="80" width="180" height="90" rx="8" fill="#C45A27" fill-opacity="0.12" stroke="#C45A27" stroke-width="1.5"/>
  <text x="150" y="105" text-anchor="middle" font-weight="600" font-size="12" fill="#C45A27">OCR Intelligence</text>
  <text x="150" y="125" text-anchor="middle" font-weight="400" font-size="10" fill="#D0D3D8">Document Digitization</text>
  <text x="150" y="145" text-anchor="middle" font-weight="400" font-size="9" fill="#8A8D95">98%+ Accuracy</text>
  <text x="150" y="160" text-anchor="middle" font-weight="400" font-size="8" fill="#C45A27">Layer 1: Data Capture</text>
  
  <!-- Arrow from OCR to Hub -->
  <line x1="240" y1="125" x2="340" y2="195" stroke="#C45A27" stroke-width="1.5"/>
  <polygon points="335,190 345,200 335,205" fill="#C45A27"/>
  
  <!-- Product 2: Digital Twin (Top-Right) -->
  <rect x="560" y="80" width="180" height="90" rx="8" fill="#06B6D4" fill-opacity="0.12" stroke="#06B6D4" stroke-width="1.5"/>
  <text x="650" y="105" text-anchor="middle" font-weight="600" font-size="12" fill="#06B6D4">Digital Twin</text>
  <text x="650" y="125" text-anchor="middle" font-weight="400" font-size="10" fill="#D0D3D8">13-Module Dashboard</text>
  <text x="650" y="145" text-anchor="middle" font-weight="400" font-size="9" fill="#8A8D95">75% MIS Reduction</text>
  <text x="650" y="160" text-anchor="middle" font-weight="400" font-size="8" fill="#06B6D4">Layer 2: Intelligence</text>
  
  <!-- Arrow from Hub to Digital Twin -->
  <line x1="460" y1="195" x2="560" y2="125" stroke="#06B6D4" stroke-width="1.5"/>
  <polygon points="555,130 565,120 555,115" fill="#06B6D4"/>
  
  <!-- Product 3: NCR Tracker (Bottom-Left) -->
  <rect x="60" y="280" width="180" height="90" rx="8" fill="#10B981" fill-opacity="0.12" stroke="#10B981" stroke-width="1.5"/>
  <text x="150" y="305" text-anchor="middle" font-weight="600" font-size="12" fill="#10B981">NCR Tracker</text>
  <text x="150" y="325" text-anchor="middle" font-weight="400" font-size="10" fill="#D0D3D8">6-Module Quality</text>
  <text x="150" y="345" text-anchor="middle" font-weight="400" font-size="9" fill="#8A8D95">40%+ Faster Closure</text>
  <text x="150" y="360" text-anchor="middle" font-weight="400" font-size="8" fill="#10B981">Layer 2: Intelligence</text>
  
  <!-- Arrow from Hub to NCR Tracker -->
  <line x1="340" y1="255" x2="240" y2="325" stroke="#10B981" stroke-width="1.5"/>
  <polygon points="245,320 235,330 245,335" fill="#10B981"/>
  
  <!-- Product 4: Contract Forensics (Bottom-Right) -->
  <rect x="560" y="280" width="180" height="90" rx="8" fill="#8B5CF6" fill-opacity="0.12" stroke="#8B5CF6" stroke-width="1.5"/>
  <text x="650" y="305" text-anchor="middle" font-weight="600" font-size="12" fill="#8B5CF6">Contract Forensics</text>
  <text x="650" y="325" text-anchor="middle" font-weight="400" font-size="10" fill="#D0D3D8">AI Contract Analysis</text>
  <text x="650" y="345" text-anchor="middle" font-weight="400" font-size="9" fill="#8A8D95">Weeks → Hours</text>
  <text x="650" y="360" text-anchor="middle" font-weight="400" font-size="8" fill="#8B5CF6">Layer 3: Decision</text>
  
  <!-- Arrow from Contract Forensics to Hub -->
  <line x1="560" y1="325" x2="460" y2="255" stroke="#8B5CF6" stroke-width="1.5"/>
  <polygon points="465,260 455,250 455,260" fill="#8B5CF6"/>
  
  <!-- Product 5: TCB Simulation (Bottom-Center) -->
  <rect x="310" y="350" width="180" height="80" rx="8" fill="#F59E0B" fill-opacity="0.12" stroke="#F59E0B" stroke-width="1.5"/>
  <text x="400" y="375" text-anchor="middle" font-weight="600" font-size="12" fill="#F59E0B">TCB Simulation</text>
  <text x="400" y="395" text-anchor="middle" font-weight="400" font-size="10" fill="#D0D3D8">Time-Cost-Buffer</text>
  <text x="400" y="415" text-anchor="middle" font-weight="400" font-size="8" fill="#F59E0B">Layer 4: Evidence</text>
  
  <!-- Arrow from Hub to TCB -->
  <line x1="400" y1="290" x2="400" y2="350" stroke="#F59E0B" stroke-width="1.5"/>
  <polygon points="395,345 405,345 400,355" fill="#F59E0B"/>
  
  <!-- Cross-product connections (dashed) -->
  <line x1="240" y1="160" x2="560" y2="160" stroke="#8A8D95" stroke-width="1" stroke-dasharray="4,4"/>
  <line x1="240" y1="320" x2="560" y2="320" stroke="#8A8D95" stroke-width="1" stroke-dasharray="4,4"/>
  <line x1="150" y1="170" x2="150" y2="280" stroke="#8A8D95" stroke-width="1" stroke-dasharray="4,4"/>
  <line x1="650" y1="170" x2="650" y2="280" stroke="#8A8D95" stroke-width="1" stroke-dasharray="4,4"/>
  
  <!-- Bottom Brand -->
  <text x="400" y="445" text-anchor="middle" font-weight="400" font-size="9" fill="#C45A27">InfraMind AI — AI-Enabled EPC Operational Intelligence</text>
</svg>